<svg xmlns="http://www.w3.org/2000/svg" viewBox="0 0 1024 1024"><defs><style>.cls-1{fill:#784637;}.cls-2{fill:#d77846;}.cls-3{fill:#a05a50;}.cls-4{fill:#3caa6e;}.cls-5{fill:#5ac878;}.cls-6{fill:#8cdc50;}.cls-7{opacity:0.1;}.cls-8{fill:#00c5fd;}.cls-9{fill:#a0e6ff;}</style></defs><title>3-植物花朵-转形状</title><g id="设计"><path class="cls-1" d="M768,816c0-141.38-114.62-256-256-256S256,674.62,256,816Z"/><path class="cls-2" d="M224,816H800a0,0,0,0,1,0,0V928a32,32,0,0,1-32,32H256a32,32,0,0,1-32-32V816A0,0,0,0,1,224,816Z"/><path class="cls-3" d="M168,672H856a8,8,0,0,1,8,8V784a32,32,0,0,1-32,32H192a32,32,0,0,1-32-32V680A8,8,0,0,1,168,672Z"/><path class="cls-4" d="M512,64S384,143.91,384,288,512,512,512,512s128-80,128-224S512,64,512,64Z"/><path class="cls-5" d="M826.57,293.45s-147-34-248.9,67.88-67.88,248.9-67.88,248.9,147.09,33.93,248.9-67.88S826.57,293.45,826.57,293.45Z"/><path class="cls-6" d="M197.45,293.45s-34,147,67.88,248.9,248.9,67.88,248.9,67.88,33.93-147.09-67.88-248.9S197.45,293.45,197.45,293.45Z"/></g><g id="阴影" class="cls-7"><path d="M768,960a32,32,0,0,0,32-32V816h32a32,32,0,0,0,32-32V680a8,8,0,0,0-8-8H723.68a257.6,257.6,0,0,0-68.87-68.49c35.11-10.42,71.75-29,103.88-61.16,101.81-101.81,67.88-248.9,67.88-248.9s-97.26-22.5-188.4,23.94A237.59,237.59,0,0,0,640,288C640,144,512,64,512,64V960Z"/></g><g id="水滴"><path class="cls-8" d="M816,560a64,64,0,0,1-128,0c0-35.35,64-144,64-144S816,524.65,816,560Z"/><circle class="cls-9" cx="776" cy="584" r="24"/></g></svg>