<svg xmlns="http://www.w3.org/2000/svg" viewBox="0 0 1024 1024"><defs><style>.cls-1{fill:#8cdc50;}.cls-2{fill:#ff641e;}.cls-3{fill:#ffa028;}.cls-4{fill:#ffdc32;}.cls-5{fill:#3caa6e;}.cls-6{fill:#5ac878;}.cls-7{fill:#d77846;}.cls-8{fill:#a05a50;}.cls-9{opacity:0.1;}.cls-10{fill:#00c5fd;}.cls-11{fill:#a0e6ff;}</style></defs><title>3-植物花朵-转形状</title><g id="设计"><path class="cls-1" d="M512,760a8,8,0,0,1-8-8V336a8,8,0,0,1,16,0V752A8,8,0,0,1,512,760Z"/><path class="cls-2" d="M380,99.37s-33.16,70.57-7.43,115.14S460,237.93,460,237.93s49.14-42.89,23.43-87.42S380,99.37,380,99.37Z"/><path class="cls-2" d="M564,418.07s-49.16,42.85-23.43,87.42S644,556.63,644,556.63s33.14-70.61,7.43-115.14S564,418.07,564,418.07Z"/><path class="cls-2" d="M740.63,196s-70.57-33.16-115.14-7.43S602.07,276,602.07,276s42.89,49.14,87.42,23.43S740.63,196,740.63,196Z"/><path class="cls-2" d="M421.93,380s-42.85-49.16-87.42-23.43S283.37,460,283.37,460s70.61,33.14,115.14,7.43S421.93,380,421.93,380Z"/><path class="cls-3" d="M283.37,196s6.57,77.69,51.14,103.43S421.93,276,421.93,276s21.11-61.72-23.42-87.43S283.37,196,283.37,196Z"/><path class="cls-3" d="M602.07,380s-21.15,61.69,23.42,87.43S740.63,460,740.63,460,734,382.28,689.49,356.57,602.07,380,602.07,380Z"/><path class="cls-3" d="M644,99.37s-77.69,6.57-103.43,51.14S564,237.93,564,237.93s61.72,21.11,87.43-23.42S644,99.37,644,99.37Z"/><path class="cls-3" d="M460,418.07s-61.69-21.15-87.43,23.42S380,556.63,380,556.63s77.72-6.61,103.43-51.14S460,418.07,460,418.07Z"/><path class="cls-4" d="M512,64s-64,44.54-64,96,64,64,64,64,64-12.58,64-64S512,64,512,64Z"/><path class="cls-4" d="M512,432s-64,12.54-64,64,64,96,64,96,64-44.58,64-96S512,432,512,432Z"/><path class="cls-4" d="M776,328s-44.54-64-96-64-64,64-64,64,12.58,64,64,64S776,328,776,328Z"/><path class="cls-4" d="M408,328s-12.54-64-64-64-96,64-96,64,44.58,64,96,64S408,328,408,328Z"/><path class="cls-5" d="M716.16,595.85s-103.94-24-176,48-48,176-48,176,104,24,176-48S716.16,595.85,716.16,595.85Z"/><path class="cls-6" d="M307.85,595.85s-24,103.95,48,176,176,48,176,48,24-104-48-176S307.85,595.85,307.85,595.85Z"/><path class="cls-7" d="M224,832H800a0,0,0,0,1,0,0V944a32,32,0,0,1-32,32H256a32,32,0,0,1-32-32V832A0,0,0,0,1,224,832Z"/><path class="cls-8" d="M168,688H856a8,8,0,0,1,8,8V800a32,32,0,0,1-32,32H192a32,32,0,0,1-32-32V696A8,8,0,0,1,168,688Z"/><circle class="cls-8" cx="512" cy="328" r="152"/><circle class="cls-4" cx="512" cy="328" r="104"/><path class="cls-7" d="M224,832H800a0,0,0,0,1,0,0V944a32,32,0,0,1-32,32H256a32,32,0,0,1-32-32V832A0,0,0,0,1,224,832Z"/><path class="cls-8" d="M168,688H856a8,8,0,0,1,8,8V800a32,32,0,0,1-32,32H192a32,32,0,0,1-32-32V696A8,8,0,0,1,168,688Z"/></g><g id="阴影" class="cls-9"><path d="M768,976a32,32,0,0,0,32-32V832h32a32,32,0,0,0,32-32V696a8,8,0,0,0-8-8H714.19c11.8-49.54,2-92.15,2-92.15s-103.94-24-176,48A167.68,167.68,0,0,0,520,668.22V585.87c11.83-9.59,33.94-29.62,46.55-54.26,32.81,21.24,77.45,25,77.45,25s19-40.55,17-79.57c39,2,79.58-17.06,79.58-17.06s-3.8-44.64-25-77.44C750.39,364.76,776,328,776,328s-25.59-36.76-60.39-54.56c21.22-32.81,25-77.44,25-77.44s-40.54-19-79.58-17.06c2-39-17-79.57-17-79.57s-44.64,3.78-77.45,25C548.75,89.61,512,64,512,64V976Z"/></g><g id="水滴"><path class="cls-10" d="M368,576a64,64,0,0,1-128,0c0-35.35,64-144,64-144S368,540.65,368,576Z"/><circle class="cls-11" cx="328" cy="600" r="24"/></g></svg>